<?xml version="1.0" encoding="UTF-8" standalone="no"?>
<svg
   xmlns:dc="http://purl.org/dc/elements/1.1/"
   xmlns:cc="http://creativecommons.org/ns#"
   xmlns:rdf="http://www.w3.org/1999/02/22-rdf-syntax-ns#"
   xmlns:svg="http://www.w3.org/2000/svg"
   xmlns="http://www.w3.org/2000/svg"
   id="svg4656"
   version="1.1"
   viewBox="0 0 66.145832 66.145835"
   height="250"
   width="250">
  <defs
     id="defs4650" />
  <metadata
     id="metadata4653">
    <rdf:RDF>
      <cc:Work
         rdf:about="">
        <dc:format>image/svg+xml</dc:format>
        <dc:type
           rdf:resource="http://purl.org/dc/dcmitype/StillImage" />
        <dc:title></dc:title>
      </cc:Work>
    </rdf:RDF>
  </metadata>
  <g
     transform="translate(0,-230.85415)"
     id="layer1">
    <path
       d="m 21.450148,252.77677 v 2.64583 h 7.9375 v -2.64583 z m 22.489584,0 h -31.75 l -3.9687501,-2.64583 v -6.61459 l 3.9687501,-2.64582 h 44.979171 l 2.64583,2.64582 v 47.625 H 8.2209819 v -2.64582 l 1.322917,-2.64584 h 3.9687501 l 1.322916,2.64584 h 22.489584 l 6.614583,-5.29168 z m -31.049787,2.64583 h 25.75812 v 19.14869 c -1.810776,8.14533 -6.77232,10.61003 -8.780397,13.0881 h -8.488862 c -2.011142,-2.47428 -6.744216,-4.96418 -8.547659,-13.0881 z"
       style="fill:#000000;fill-opacity:1;stroke:#000000;stroke-width:0.21603139px;stroke-linecap:butt;stroke-linejoin:miter;stroke-opacity:1"
       id="path5371" />
    <path
       id="path5373"
       d="m 50.554313,271.2976 h 2.20486 l 2.20486,2.20487 v 2.20485 l -2.20486,2.20487 h -2.20486 l -2.20486,-2.20487 v -2.20485 z"
       style="fill:#ffffff;fill-opacity:1;stroke:#000000;stroke-width:0.44097221px;stroke-linecap:butt;stroke-linejoin:miter;stroke-opacity:1" />
  </g>
</svg>
