<?xml version="1.0" encoding="UTF-8" standalone="no"?>
<svg
   xmlns:dc="http://purl.org/dc/elements/1.1/"
   xmlns:cc="http://creativecommons.org/ns#"
   xmlns:rdf="http://www.w3.org/1999/02/22-rdf-syntax-ns#"
   xmlns:svg="http://www.w3.org/2000/svg"
   xmlns="http://www.w3.org/2000/svg"
   width="250"
   height="250"
   viewBox="0 0 66.145832 66.145835"
   version="1.1"
   id="svg4656">
  <defs
     id="defs4650" />
  <metadata
     id="metadata4653">
    <rdf:RDF>
      <cc:Work
         rdf:about="">
        <dc:format>image/svg+xml</dc:format>
        <dc:type
           rdf:resource="http://purl.org/dc/dcmitype/StillImage" />
        <dc:title></dc:title>
      </cc:Work>
    </rdf:RDF>
  </metadata>
  <g
     id="layer1"
     transform="translate(0,-230.85415)">
    <path
       id="path4645"
       style="display:inline;fill:#f5f5f5;fill-opacity:1;stroke:#f5f5f5;stroke-width:0.39906892px;stroke-linecap:butt;stroke-linejoin:miter;stroke-opacity:1"
       d="m 27.14734,249.99275 v 4.88758 h 13.033535 v -4.88758 z m -11.404346,6.51676 c 13.191157,0 23.732159,0 34.213033,0 z m 29.325457,-6.51676 -1.629191,1.62919 v 1.62919 l 1.629191,1.6292 h 1.629193 l 1.629192,-1.6292 v -1.62919 l -1.629192,-1.62919 z m -24.437879,0 -1.629194,1.62919 v 1.62919 l 1.629194,1.6292 h 1.629192 l 1.629192,-1.6292 v -1.62919 l -1.629192,-1.62919 z m -5.539256,8.14596 -1.303353,1.20046 v 20.40777 l 1.303353,1.20046 H 51.58522 l 1.303353,-1.20046 V 259.33917 L 51.58522,258.13871 Z M 7.5970348,246.73437 H 59.73118 v 37.47142 H 7.5970348 Z" />
  </g>
</svg>
