<?xml version="1.0" encoding="UTF-8" standalone="no"?>
<svg
   xmlns:dc="http://purl.org/dc/elements/1.1/"
   xmlns:cc="http://creativecommons.org/ns#"
   xmlns:rdf="http://www.w3.org/1999/02/22-rdf-syntax-ns#"
   xmlns:svg="http://www.w3.org/2000/svg"
   xmlns="http://www.w3.org/2000/svg"
   xmlns:sodipodi="http://sodipodi.sourceforge.net/DTD/sodipodi-0.dtd"
   xmlns:inkscape="http://www.inkscape.org/namespaces/inkscape"
   width="250"
   height="250"
   viewBox="0 0 66.145832 66.145835"
   version="1.1"
   id="svg4656"
   sodipodi:docname="shape.svg"
   inkscape:version="0.92.1 r15371">
  <sodipodi:namedview
     pagecolor="#ffffff"
     bordercolor="#666666"
     borderopacity="1"
     objecttolerance="10"
     gridtolerance="10"
     guidetolerance="10"
     inkscape:pageopacity="0"
     inkscape:pageshadow="2"
     inkscape:window-width="1920"
     inkscape:window-height="1137"
     id="namedview11610"
     showgrid="false"
     inkscape:zoom="0.944"
     inkscape:cx="125"
     inkscape:cy="125"
     inkscape:window-x="-8"
     inkscape:window-y="-8"
     inkscape:window-maximized="1"
     inkscape:current-layer="svg4656" />
  <defs
     id="defs4650" />
  <metadata
     id="metadata4653">
    <rdf:RDF>
      <cc:Work
         rdf:about="">
        <dc:format>image/svg+xml</dc:format>
        <dc:type
           rdf:resource="http://purl.org/dc/dcmitype/StillImage" />
        <dc:title />
      </cc:Work>
    </rdf:RDF>
  </metadata>
  <path
     inkscape:connector-curvature="0"
     style="fill:#000000;fill-opacity:1;stroke:#000000;stroke-width:0.30526972px;stroke-linecap:butt;stroke-linejoin:miter;stroke-opacity:1"
     d="m 14.180099,4.0565694 c -0.788277,0.01298 -1.37469,0.150993 -1.660881,0.437183 -2.9536585,2.875686 -6.1053975,4.579226 -4.5790485,10.6846186 3.0526975,9.158094 -3.052527,13.736805 -3.052527,19.842203 -0.493048,7.20463 9.1580975,13.73749 9.1580975,21.36923 -1.219694,6.48266 1.342345,8.64207 10.684102,3.05253 11.8202,-5.47071 25.948117,7.63174 29.000813,-4.57905 3.052699,-9.15809 1.526519,-16.79002 -3.052527,-19.84271 -4.127185,-3.90601 -1.75e-4,-13.736805 -6.10557,-15.263154 -4.579046,-1.526347 -8.953707,1.010658 -13.737146,-3.053044 -1.769838,-1.623474 1.72e-4,-4.578878 -3.052527,-7.6315746 C 24.801486,6.2939524 17.595962,4.0003284 14.180099,4.0565694 Z M 39.824012,20.502594 h 3.087148 l 3.086634,3.08715 v 3.086634 l -3.086634,3.086634 h -3.087148 l -3.086635,-3.086634 v -3.086634 z m 2.205032,11.46545 h 3.086635 l 3.087147,3.08663 v 3.08715 l -3.087147,3.08664 h -3.086635 l -3.086634,-3.08664 v -3.08715 z"
     id="path10941" />
  <path
     style="fill:#000000;fill-opacity:1;stroke:#000000;stroke-width:0.30868056px;stroke-linecap:butt;stroke-linejoin:miter;stroke-opacity:1"
     d="m 57.904044,16.093044 h 3.086807 l 3.08681,3.086806 v 3.086807 l -3.08681,3.086806 H 57.904044 L 54.81724,22.266657 V 19.17985 Z"
     id="path10945"
     inkscape:connector-curvature="0" />
  <path
     style="fill:#000000;fill-opacity:1;stroke:#000000;stroke-width:0.30868056px;stroke-linecap:butt;stroke-linejoin:miter;stroke-opacity:1"
     d="m 51.730431,5.9506814 h 3.086809 l 3.086804,3.086806 V 12.124294 L 54.81724,15.211099 H 51.730431 L 48.643628,12.124294 V 9.0374874 Z"
     id="path10945-2"
     inkscape:connector-curvature="0" />
</svg>
