<?xml version="1.0" encoding="UTF-8" standalone="no"?>
<svg
   xmlns:dc="http://purl.org/dc/elements/1.1/"
   xmlns:cc="http://creativecommons.org/ns#"
   xmlns:rdf="http://www.w3.org/1999/02/22-rdf-syntax-ns#"
   xmlns:svg="http://www.w3.org/2000/svg"
   xmlns="http://www.w3.org/2000/svg"
   id="svg4656"
   version="1.1"
   viewBox="0 0 66.145832 66.145835"
   height="250"
   width="250">
  <defs
     id="defs4650" />
  <metadata
     id="metadata4653">
    <rdf:RDF>
      <cc:Work
         rdf:about="">
        <dc:format>image/svg+xml</dc:format>
        <dc:type
           rdf:resource="http://purl.org/dc/dcmitype/StillImage" />
        <dc:title></dc:title>
      </cc:Work>
    </rdf:RDF>
  </metadata>
  <g
     transform="translate(0,-230.85415)"
     id="layer1">
    <path
       d="m 34.873154,263.73238 c -3.421178,-3.42117 1.01342,-6.21907 0,-8.55292 -2.223073,-3.12234 -2.456854,-5.08316 -3.421178,-8.55293 1.955426,4.46791 5.131753,5.13175 5.131753,10.26351 -1.584284,2.11881 -3.421164,3.42117 -1.710575,6.84234 z m 13.684671,5.13175 c -3.421164,-3.42116 1.013434,-6.21907 0,-8.55292 -2.223059,-3.12234 -2.456854,-5.08316 -3.421164,-8.55293 1.955413,4.46791 5.131753,5.13176 5.131753,10.26351 -1.584284,2.11881 -3.421177,3.42118 -1.710589,6.84234 z m -27.369356,0 c -3.421166,-3.42116 1.013433,-6.21907 0,-8.55292 -2.22306,-3.12234 -2.456848,-5.08316 -3.421166,-8.55293 1.955416,4.46791 5.131755,5.13176 5.131755,10.26351 -1.584285,2.11881 -3.421169,3.42118 -1.710589,6.84234 z m 22.237603,11.97409 v 3.42117 h 5.131753 v -3.42117 z m -23.948183,0 v 3.42117 h 5.131758 v -3.42117 z M 7.5037961,272.2853 9.2143811,270.57471 H 58.821332 l 1.710589,1.71059 v 6.84234 l -1.710589,1.71058 H 9.2143811 l -1.710585,-1.71058 z"
       style="display:inline;fill:#000000;fill-opacity:1;stroke:#000000;stroke-width:0.34211689px;stroke-linecap:butt;stroke-linejoin:miter;stroke-opacity:1"
       id="path4568-0" />
  </g>
</svg>
