<?xml version="1.0" encoding="UTF-8" standalone="no"?>
<svg
   xmlns:dc="http://purl.org/dc/elements/1.1/"
   xmlns:cc="http://creativecommons.org/ns#"
   xmlns:rdf="http://www.w3.org/1999/02/22-rdf-syntax-ns#"
   xmlns:svg="http://www.w3.org/2000/svg"
   xmlns="http://www.w3.org/2000/svg"
   id="svg4656"
   version="1.1"
   viewBox="0 0 66.145832 66.145835"
   height="250"
   width="250">
  <defs
     id="defs4650" />
  <metadata
     id="metadata4653">
    <rdf:RDF>
      <cc:Work
         rdf:about="">
        <dc:format>image/svg+xml</dc:format>
        <dc:type
           rdf:resource="http://purl.org/dc/dcmitype/StillImage" />
        <dc:title></dc:title>
      </cc:Work>
    </rdf:RDF>
  </metadata>
  <g
     transform="translate(0,-230.85415)"
     id="layer1">
    <path
       d="m 22.362026,251.33939 c 0.713232,0.91572 2.230452,1.09035 1.615278,3.23055 -2.663368,2.18026 -0.622829,3.26061 -1.615278,4.84583 1.615278,-1.61528 0,-3.23056 3.230556,-4.84583 1.069787,-1.07403 0.0127,-2.15086 -3.230556,-3.23055 z m -8.076365,0 c 0.713231,0.91572 2.230439,1.09035 1.615277,3.23055 -2.66337,2.18026 -0.622829,3.26061 -1.615277,4.84583 1.615277,-1.61528 0,-3.23056 3.230555,-4.84583 1.069787,-1.07403 0.0127,-2.15086 -3.230555,-3.23055 z m 21.709281,11.1777 h 25.58594 v 2.326 h -25.58594 z m -32.5639204,2e-5 c 40.6200544,10e-5 19.3832854,-2e-5 32.5639204,-2e-5 v 13.95597 l -2.325994,2.32599 H 5.7570146 l -2.325993,-2.32598 z"
       style="display:inline;fill:#000000;fill-opacity:1;stroke:#000000;stroke-width:0.32305476px;stroke-linecap:butt;stroke-linejoin:miter;stroke-opacity:1"
       id="path5315-5" />
  </g>
</svg>
